<mxfile host="65bd71144e">
    <diagram id="AszipI8Qen7jwAWHFYw3" name="Page-1">
        <mxGraphModel dx="801" dy="716" grid="1" gridSize="10" guides="1" tooltips="1" connect="1" arrows="1" fold="1" page="1" pageScale="1" pageWidth="1169" pageHeight="827" math="0" shadow="0">
            <root>
                <mxCell id="0"/>
                <mxCell id="1" parent="0"/>
                <mxCell id="37" style="edgeStyle=none;html=1;exitX=1;exitY=0.3333333333333333;exitDx=0;exitDy=0;exitPerimeter=0;entryX=0;entryY=0.5;entryDx=0;entryDy=0;endArrow=none;endFill=0;strokeWidth=3;fontColor=#000000;" parent="1" source="47uoucX9Yz7AY1I-daVj-1" target="14" edge="1">
                    <mxGeometry relative="1" as="geometry"/>
                </mxCell>
                <mxCell id="38" style="edgeStyle=none;html=1;exitX=1;exitY=0.3333333333333333;exitDx=0;exitDy=0;exitPerimeter=0;entryX=0;entryY=0.5;entryDx=0;entryDy=0;endArrow=none;endFill=0;strokeWidth=3;fontColor=#000000;" parent="1" source="47uoucX9Yz7AY1I-daVj-1" target="15" edge="1">
                    <mxGeometry relative="1" as="geometry"/>
                </mxCell>
                <mxCell id="39" style="edgeStyle=none;html=1;exitX=1;exitY=0.3333333333333333;exitDx=0;exitDy=0;exitPerimeter=0;entryX=0;entryY=0.5;entryDx=0;entryDy=0;endArrow=none;endFill=0;strokeWidth=3;fontColor=#000000;" parent="1" source="47uoucX9Yz7AY1I-daVj-1" target="16" edge="1">
                    <mxGeometry relative="1" as="geometry"/>
                </mxCell>
                <mxCell id="40" style="edgeStyle=none;html=1;exitX=0;exitY=0.3333333333333333;exitDx=0;exitDy=0;exitPerimeter=0;entryX=1;entryY=0.5;entryDx=0;entryDy=0;endArrow=none;endFill=0;strokeWidth=3;fontColor=#000000;" parent="1" source="47uoucX9Yz7AY1I-daVj-1" target="18" edge="1">
                    <mxGeometry relative="1" as="geometry"/>
                </mxCell>
                <mxCell id="41" style="edgeStyle=none;html=1;exitX=0;exitY=0.3333333333333333;exitDx=0;exitDy=0;exitPerimeter=0;entryX=1;entryY=0.5;entryDx=0;entryDy=0;endArrow=none;endFill=0;strokeWidth=3;fontColor=#000000;" parent="1" source="47uoucX9Yz7AY1I-daVj-1" target="32" edge="1">
                    <mxGeometry relative="1" as="geometry"/>
                </mxCell>
                <mxCell id="42" style="edgeStyle=none;html=1;exitX=0;exitY=0.3333333333333333;exitDx=0;exitDy=0;exitPerimeter=0;entryX=1;entryY=0.5;entryDx=0;entryDy=0;endArrow=none;endFill=0;strokeWidth=3;fontColor=#000000;" parent="1" source="47uoucX9Yz7AY1I-daVj-1" target="13" edge="1">
                    <mxGeometry relative="1" as="geometry"/>
                </mxCell>
                <mxCell id="43" style="edgeStyle=none;html=1;exitX=0;exitY=0.3333333333333333;exitDx=0;exitDy=0;exitPerimeter=0;entryX=1;entryY=0.5;entryDx=0;entryDy=0;endArrow=none;endFill=0;strokeWidth=3;fontColor=#000000;" parent="1" source="47uoucX9Yz7AY1I-daVj-1" target="17" edge="1">
                    <mxGeometry relative="1" as="geometry"/>
                </mxCell>
                <mxCell id="47uoucX9Yz7AY1I-daVj-1" value="&lt;span style=&quot;font-size: 16px&quot;&gt;Сотрудник службы безопасности&lt;/span&gt;" style="shape=umlActor;verticalLabelPosition=bottom;verticalAlign=top;html=1;outlineConnect=0;strokeWidth=3;" parent="1" vertex="1">
                    <mxGeometry x="400" y="550" width="30" height="60" as="geometry"/>
                </mxCell>
                <mxCell id="22" value="" style="edgeStyle=none;html=1;strokeWidth=4;fontColor=#000000;" parent="1" source="47uoucX9Yz7AY1I-daVj-2" edge="1">
                    <mxGeometry relative="1" as="geometry">
                        <mxPoint x="415" y="670" as="targetPoint"/>
                    </mxGeometry>
                </mxCell>
                <mxCell id="47" style="edgeStyle=none;html=1;exitX=0;exitY=0.3333333333333333;exitDx=0;exitDy=0;exitPerimeter=0;entryX=1;entryY=0.5;entryDx=0;entryDy=0;endArrow=none;endFill=0;strokeWidth=3;fontColor=#000000;" parent="1" source="47uoucX9Yz7AY1I-daVj-2" target="19" edge="1">
                    <mxGeometry relative="1" as="geometry"/>
                </mxCell>
                <mxCell id="47uoucX9Yz7AY1I-daVj-2" value="&lt;font style=&quot;font-size: 16px&quot;&gt;Администратор&lt;/font&gt;" style="shape=umlActor;verticalLabelPosition=bottom;verticalAlign=top;html=1;outlineConnect=0;strokeWidth=3;" parent="1" vertex="1">
                    <mxGeometry x="400" y="720" width="30" height="60" as="geometry"/>
                </mxCell>
                <mxCell id="47uoucX9Yz7AY1I-daVj-4" value="" style="shape=table;html=1;whiteSpace=wrap;startSize=0;container=1;collapsible=0;childLayout=tableLayout;" parent="1" vertex="1">
                    <mxGeometry x="750" width="410" height="820" as="geometry"/>
                </mxCell>
                <mxCell id="47uoucX9Yz7AY1I-daVj-5" value="" style="shape=tableRow;horizontal=0;startSize=0;swimlaneHead=0;swimlaneBody=0;top=0;left=0;bottom=0;right=0;collapsible=0;dropTarget=0;points=[[0,0.5],[1,0.5]];portConstraint=eastwest;" parent="47uoucX9Yz7AY1I-daVj-4" vertex="1">
                    <mxGeometry width="410" height="51" as="geometry"/>
                </mxCell>
                <mxCell id="47uoucX9Yz7AY1I-daVj-6" value="Прецедент" style="shape=partialRectangle;html=1;whiteSpace=wrap;connectable=0;top=0;left=0;bottom=0;right=0;overflow=hidden;" parent="47uoucX9Yz7AY1I-daVj-5" vertex="1">
                    <mxGeometry width="130" height="51" as="geometry">
                        <mxRectangle width="130" height="51" as="alternateBounds"/>
                    </mxGeometry>
                </mxCell>
                <mxCell id="47uoucX9Yz7AY1I-daVj-7" value="Действующее&lt;br&gt;лицо" style="shape=partialRectangle;html=1;whiteSpace=wrap;connectable=0;top=0;left=0;bottom=0;right=0;overflow=hidden;" parent="47uoucX9Yz7AY1I-daVj-5" vertex="1">
                    <mxGeometry x="130" width="260" height="51" as="geometry">
                        <mxRectangle width="260" height="51" as="alternateBounds"/>
                    </mxGeometry>
                </mxCell>
                <mxCell id="47uoucX9Yz7AY1I-daVj-8" value="" style="shape=partialRectangle;html=1;whiteSpace=wrap;connectable=0;top=0;left=0;bottom=0;right=0;overflow=hidden;" parent="47uoucX9Yz7AY1I-daVj-5" vertex="1">
                    <mxGeometry x="390" width="20" height="51" as="geometry">
                        <mxRectangle width="20" height="51" as="alternateBounds"/>
                    </mxGeometry>
                </mxCell>
                <mxCell id="47uoucX9Yz7AY1I-daVj-33" value="" style="shape=tableRow;horizontal=0;startSize=0;swimlaneHead=0;swimlaneBody=0;top=0;left=0;bottom=0;right=0;collapsible=0;dropTarget=0;points=[[0,0.5],[1,0.5]];portConstraint=eastwest;" parent="47uoucX9Yz7AY1I-daVj-4" vertex="1">
                    <mxGeometry y="51" width="410" height="51" as="geometry"/>
                </mxCell>
                <mxCell id="47uoucX9Yz7AY1I-daVj-34" value="Создание запроса на временный пропуск&amp;nbsp;" style="shape=partialRectangle;html=1;whiteSpace=wrap;connectable=0;top=0;left=0;bottom=0;right=0;overflow=hidden;" parent="47uoucX9Yz7AY1I-daVj-33" vertex="1">
                    <mxGeometry width="130" height="51" as="geometry">
                        <mxRectangle width="130" height="51" as="alternateBounds"/>
                    </mxGeometry>
                </mxCell>
                <mxCell id="47uoucX9Yz7AY1I-daVj-35" value="Базовый пользователь,Уполномоченное лицо, Сотрудник службы безопасности,&lt;br&gt;Администратор" style="shape=partialRectangle;html=1;whiteSpace=wrap;connectable=0;top=0;left=0;bottom=0;right=0;overflow=hidden;" parent="47uoucX9Yz7AY1I-daVj-33" vertex="1">
                    <mxGeometry x="130" width="260" height="51" as="geometry">
                        <mxRectangle width="260" height="51" as="alternateBounds"/>
                    </mxGeometry>
                </mxCell>
                <mxCell id="47uoucX9Yz7AY1I-daVj-36" value="" style="shape=partialRectangle;html=1;whiteSpace=wrap;connectable=0;top=0;left=0;bottom=0;right=0;overflow=hidden;pointerEvents=1;" parent="47uoucX9Yz7AY1I-daVj-33" vertex="1">
                    <mxGeometry x="390" width="20" height="51" as="geometry">
                        <mxRectangle width="20" height="51" as="alternateBounds"/>
                    </mxGeometry>
                </mxCell>
                <mxCell id="47uoucX9Yz7AY1I-daVj-29" value="" style="shape=tableRow;horizontal=0;startSize=0;swimlaneHead=0;swimlaneBody=0;top=0;left=0;bottom=0;right=0;collapsible=0;dropTarget=0;points=[[0,0.5],[1,0.5]];portConstraint=eastwest;" parent="47uoucX9Yz7AY1I-daVj-4" vertex="1">
                    <mxGeometry y="102" width="410" height="52" as="geometry"/>
                </mxCell>
                <mxCell id="47uoucX9Yz7AY1I-daVj-30" value="Просмотр статуса запроса на пропуск" style="shape=partialRectangle;html=1;whiteSpace=wrap;connectable=0;top=0;left=0;bottom=0;right=0;overflow=hidden;" parent="47uoucX9Yz7AY1I-daVj-29" vertex="1">
                    <mxGeometry width="130" height="52" as="geometry">
                        <mxRectangle width="130" height="52" as="alternateBounds"/>
                    </mxGeometry>
                </mxCell>
                <mxCell id="47uoucX9Yz7AY1I-daVj-31" value="Базовый пользователь,Уполномоченное лицо, Сотрудник службы безопасности,&lt;br&gt;Администратор" style="shape=partialRectangle;html=1;whiteSpace=wrap;connectable=0;top=0;left=0;bottom=0;right=0;overflow=hidden;" parent="47uoucX9Yz7AY1I-daVj-29" vertex="1">
                    <mxGeometry x="130" width="260" height="52" as="geometry">
                        <mxRectangle width="260" height="52" as="alternateBounds"/>
                    </mxGeometry>
                </mxCell>
                <mxCell id="47uoucX9Yz7AY1I-daVj-32" value="" style="shape=partialRectangle;html=1;whiteSpace=wrap;connectable=0;top=0;left=0;bottom=0;right=0;overflow=hidden;pointerEvents=1;" parent="47uoucX9Yz7AY1I-daVj-29" vertex="1">
                    <mxGeometry x="390" width="20" height="52" as="geometry">
                        <mxRectangle width="20" height="52" as="alternateBounds"/>
                    </mxGeometry>
                </mxCell>
                <mxCell id="47uoucX9Yz7AY1I-daVj-37" value="" style="shape=tableRow;horizontal=0;startSize=0;swimlaneHead=0;swimlaneBody=0;top=0;left=0;bottom=0;right=0;collapsible=0;dropTarget=0;points=[[0,0.5],[1,0.5]];portConstraint=eastwest;" parent="47uoucX9Yz7AY1I-daVj-4" vertex="1">
                    <mxGeometry y="154" width="410" height="51" as="geometry"/>
                </mxCell>
                <mxCell id="47uoucX9Yz7AY1I-daVj-38" value="Просмотр и использование полученных пропусков" style="shape=partialRectangle;html=1;whiteSpace=wrap;connectable=0;top=0;left=0;bottom=0;right=0;overflow=hidden;" parent="47uoucX9Yz7AY1I-daVj-37" vertex="1">
                    <mxGeometry width="130" height="51" as="geometry">
                        <mxRectangle width="130" height="51" as="alternateBounds"/>
                    </mxGeometry>
                </mxCell>
                <mxCell id="47uoucX9Yz7AY1I-daVj-39" value="Базовый пользователь,Уполномоченное лицо, Сотрудник службы безопасности,&lt;br&gt;Администратор" style="shape=partialRectangle;html=1;whiteSpace=wrap;connectable=0;top=0;left=0;bottom=0;right=0;overflow=hidden;" parent="47uoucX9Yz7AY1I-daVj-37" vertex="1">
                    <mxGeometry x="130" width="260" height="51" as="geometry">
                        <mxRectangle width="260" height="51" as="alternateBounds"/>
                    </mxGeometry>
                </mxCell>
                <mxCell id="47uoucX9Yz7AY1I-daVj-40" value="" style="shape=partialRectangle;html=1;whiteSpace=wrap;connectable=0;top=0;left=0;bottom=0;right=0;overflow=hidden;pointerEvents=1;" parent="47uoucX9Yz7AY1I-daVj-37" vertex="1">
                    <mxGeometry x="390" width="20" height="51" as="geometry">
                        <mxRectangle width="20" height="51" as="alternateBounds"/>
                    </mxGeometry>
                </mxCell>
                <mxCell id="47uoucX9Yz7AY1I-daVj-49" value="" style="shape=tableRow;horizontal=0;startSize=0;swimlaneHead=0;swimlaneBody=0;top=0;left=0;bottom=0;right=0;collapsible=0;dropTarget=0;points=[[0,0.5],[1,0.5]];portConstraint=eastwest;" parent="47uoucX9Yz7AY1I-daVj-4" vertex="1">
                    <mxGeometry y="205" width="410" height="51" as="geometry"/>
                </mxCell>
                <mxCell id="47uoucX9Yz7AY1I-daVj-50" value="Просмотр запросов на получение пропуска" style="shape=partialRectangle;html=1;whiteSpace=wrap;connectable=0;top=0;left=0;bottom=0;right=0;overflow=hidden;opacity=50;" parent="47uoucX9Yz7AY1I-daVj-49" vertex="1">
                    <mxGeometry width="130" height="51" as="geometry">
                        <mxRectangle width="130" height="51" as="alternateBounds"/>
                    </mxGeometry>
                </mxCell>
                <mxCell id="47uoucX9Yz7AY1I-daVj-51" value="Уполномоченное лицо, Сотрудник службы безопасности,&lt;br&gt;Администратор" style="shape=partialRectangle;html=1;whiteSpace=wrap;connectable=0;top=0;left=0;bottom=0;right=0;overflow=hidden;opacity=50;" parent="47uoucX9Yz7AY1I-daVj-49" vertex="1">
                    <mxGeometry x="130" width="260" height="51" as="geometry">
                        <mxRectangle width="260" height="51" as="alternateBounds"/>
                    </mxGeometry>
                </mxCell>
                <mxCell id="47uoucX9Yz7AY1I-daVj-52" value="" style="shape=partialRectangle;html=1;whiteSpace=wrap;connectable=0;top=0;left=0;bottom=0;right=0;overflow=hidden;" parent="47uoucX9Yz7AY1I-daVj-49" vertex="1">
                    <mxGeometry x="390" width="20" height="51" as="geometry">
                        <mxRectangle width="20" height="51" as="alternateBounds"/>
                    </mxGeometry>
                </mxCell>
                <mxCell id="47uoucX9Yz7AY1I-daVj-9" value="" style="shape=tableRow;horizontal=0;startSize=0;swimlaneHead=0;swimlaneBody=0;top=0;left=0;bottom=0;right=0;collapsible=0;dropTarget=0;points=[[0,0.5],[1,0.5]];portConstraint=eastwest;" parent="47uoucX9Yz7AY1I-daVj-4" vertex="1">
                    <mxGeometry y="256" width="410" height="51" as="geometry"/>
                </mxCell>
                <mxCell id="47uoucX9Yz7AY1I-daVj-10" value="Создание заявки на пропуска" style="shape=partialRectangle;html=1;whiteSpace=wrap;connectable=0;top=0;left=0;bottom=0;right=0;overflow=hidden;opacity=50;" parent="47uoucX9Yz7AY1I-daVj-9" vertex="1">
                    <mxGeometry width="130" height="51" as="geometry">
                        <mxRectangle width="130" height="51" as="alternateBounds"/>
                    </mxGeometry>
                </mxCell>
                <mxCell id="47uoucX9Yz7AY1I-daVj-11" value="Уполномоченное лицо, Сотрудник службы безопасности,&lt;br&gt;Администратор" style="shape=partialRectangle;html=1;whiteSpace=wrap;connectable=0;top=0;left=0;bottom=0;right=0;overflow=hidden;opacity=50;" parent="47uoucX9Yz7AY1I-daVj-9" vertex="1">
                    <mxGeometry x="130" width="260" height="51" as="geometry">
                        <mxRectangle width="260" height="51" as="alternateBounds"/>
                    </mxGeometry>
                </mxCell>
                <mxCell id="47uoucX9Yz7AY1I-daVj-12" value="" style="shape=partialRectangle;html=1;whiteSpace=wrap;connectable=0;top=0;left=0;bottom=0;right=0;overflow=hidden;" parent="47uoucX9Yz7AY1I-daVj-9" vertex="1">
                    <mxGeometry x="390" width="20" height="51" as="geometry">
                        <mxRectangle width="20" height="51" as="alternateBounds"/>
                    </mxGeometry>
                </mxCell>
                <mxCell id="47uoucX9Yz7AY1I-daVj-17" value="" style="shape=tableRow;horizontal=0;startSize=0;swimlaneHead=0;swimlaneBody=0;top=0;left=0;bottom=0;right=0;collapsible=0;dropTarget=0;points=[[0,0.5],[1,0.5]];portConstraint=eastwest;" parent="47uoucX9Yz7AY1I-daVj-4" vertex="1">
                    <mxGeometry y="307" width="410" height="52" as="geometry"/>
                </mxCell>
                <mxCell id="47uoucX9Yz7AY1I-daVj-18" value="Просмотр статуса своей заявки" style="shape=partialRectangle;html=1;whiteSpace=wrap;connectable=0;top=0;left=0;bottom=0;right=0;overflow=hidden;opacity=50;" parent="47uoucX9Yz7AY1I-daVj-17" vertex="1">
                    <mxGeometry width="130" height="52" as="geometry">
                        <mxRectangle width="130" height="52" as="alternateBounds"/>
                    </mxGeometry>
                </mxCell>
                <mxCell id="47uoucX9Yz7AY1I-daVj-19" value="Уполномоченное лицо, Сотрудник службы безопасности,&lt;br&gt;Администратор" style="shape=partialRectangle;html=1;whiteSpace=wrap;connectable=0;top=0;left=0;bottom=0;right=0;overflow=hidden;opacity=50;" parent="47uoucX9Yz7AY1I-daVj-17" vertex="1">
                    <mxGeometry x="130" width="260" height="52" as="geometry">
                        <mxRectangle width="260" height="52" as="alternateBounds"/>
                    </mxGeometry>
                </mxCell>
                <mxCell id="47uoucX9Yz7AY1I-daVj-20" value="" style="shape=partialRectangle;html=1;whiteSpace=wrap;connectable=0;top=0;left=0;bottom=0;right=0;overflow=hidden;pointerEvents=1;" parent="47uoucX9Yz7AY1I-daVj-17" vertex="1">
                    <mxGeometry x="390" width="20" height="52" as="geometry">
                        <mxRectangle width="20" height="52" as="alternateBounds"/>
                    </mxGeometry>
                </mxCell>
                <mxCell id="47uoucX9Yz7AY1I-daVj-25" value="" style="shape=tableRow;horizontal=0;startSize=0;swimlaneHead=0;swimlaneBody=0;top=0;left=0;bottom=0;right=0;collapsible=0;dropTarget=0;points=[[0,0.5],[1,0.5]];portConstraint=eastwest;" parent="47uoucX9Yz7AY1I-daVj-4" vertex="1">
                    <mxGeometry y="359" width="410" height="51" as="geometry"/>
                </mxCell>
                <mxCell id="47uoucX9Yz7AY1I-daVj-26" value="Редактирование своих заявок" style="shape=partialRectangle;html=1;whiteSpace=wrap;connectable=0;top=0;left=0;bottom=0;right=0;overflow=hidden;opacity=50;" parent="47uoucX9Yz7AY1I-daVj-25" vertex="1">
                    <mxGeometry width="130" height="51" as="geometry">
                        <mxRectangle width="130" height="51" as="alternateBounds"/>
                    </mxGeometry>
                </mxCell>
                <mxCell id="47uoucX9Yz7AY1I-daVj-27" value="Уполномоченное лицо, Сотрудник службы безопасности,&lt;br&gt;Администратор" style="shape=partialRectangle;html=1;whiteSpace=wrap;connectable=0;top=0;left=0;bottom=0;right=0;overflow=hidden;opacity=50;" parent="47uoucX9Yz7AY1I-daVj-25" vertex="1">
                    <mxGeometry x="130" width="260" height="51" as="geometry">
                        <mxRectangle width="260" height="51" as="alternateBounds"/>
                    </mxGeometry>
                </mxCell>
                <mxCell id="47uoucX9Yz7AY1I-daVj-28" value="" style="shape=partialRectangle;html=1;whiteSpace=wrap;connectable=0;top=0;left=0;bottom=0;right=0;overflow=hidden;pointerEvents=1;" parent="47uoucX9Yz7AY1I-daVj-25" vertex="1">
                    <mxGeometry x="390" width="20" height="51" as="geometry">
                        <mxRectangle width="20" height="51" as="alternateBounds"/>
                    </mxGeometry>
                </mxCell>
                <mxCell id="47uoucX9Yz7AY1I-daVj-21" value="" style="shape=tableRow;horizontal=0;startSize=0;swimlaneHead=0;swimlaneBody=0;top=0;left=0;bottom=0;right=0;collapsible=0;dropTarget=0;points=[[0,0.5],[1,0.5]];portConstraint=eastwest;" parent="47uoucX9Yz7AY1I-daVj-4" vertex="1">
                    <mxGeometry y="410" width="410" height="51" as="geometry"/>
                </mxCell>
                <mxCell id="47uoucX9Yz7AY1I-daVj-22" value="Отклонение заявки" style="shape=partialRectangle;html=1;whiteSpace=wrap;connectable=0;top=0;left=0;bottom=0;right=0;overflow=hidden;" parent="47uoucX9Yz7AY1I-daVj-21" vertex="1">
                    <mxGeometry width="130" height="51" as="geometry">
                        <mxRectangle width="130" height="51" as="alternateBounds"/>
                    </mxGeometry>
                </mxCell>
                <mxCell id="47uoucX9Yz7AY1I-daVj-23" value="Сотрудник службы безопасности,&lt;br&gt;Администратор" style="shape=partialRectangle;html=1;whiteSpace=wrap;connectable=0;top=0;left=0;bottom=0;right=0;overflow=hidden;" parent="47uoucX9Yz7AY1I-daVj-21" vertex="1">
                    <mxGeometry x="130" width="260" height="51" as="geometry">
                        <mxRectangle width="260" height="51" as="alternateBounds"/>
                    </mxGeometry>
                </mxCell>
                <mxCell id="47uoucX9Yz7AY1I-daVj-24" value="" style="shape=partialRectangle;html=1;whiteSpace=wrap;connectable=0;top=0;left=0;bottom=0;right=0;overflow=hidden;pointerEvents=1;" parent="47uoucX9Yz7AY1I-daVj-21" vertex="1">
                    <mxGeometry x="390" width="20" height="51" as="geometry">
                        <mxRectangle width="20" height="51" as="alternateBounds"/>
                    </mxGeometry>
                </mxCell>
                <mxCell id="28" value="" style="shape=tableRow;horizontal=0;startSize=0;swimlaneHead=0;swimlaneBody=0;top=0;left=0;bottom=0;right=0;collapsible=0;dropTarget=0;points=[[0,0.5],[1,0.5]];portConstraint=eastwest;" parent="47uoucX9Yz7AY1I-daVj-4" vertex="1">
                    <mxGeometry y="461" width="410" height="52" as="geometry"/>
                </mxCell>
                <mxCell id="29" value="Частичное принятие заявки" style="shape=partialRectangle;html=1;whiteSpace=wrap;connectable=0;top=0;left=0;bottom=0;right=0;overflow=hidden;" parent="28" vertex="1">
                    <mxGeometry width="130" height="52" as="geometry">
                        <mxRectangle width="130" height="52" as="alternateBounds"/>
                    </mxGeometry>
                </mxCell>
                <mxCell id="30" value="Сотрудник службы безопасности,&lt;br&gt;Администратор" style="shape=partialRectangle;html=1;whiteSpace=wrap;connectable=0;top=0;left=0;bottom=0;right=0;overflow=hidden;" parent="28" vertex="1">
                    <mxGeometry x="130" width="260" height="52" as="geometry">
                        <mxRectangle width="260" height="52" as="alternateBounds"/>
                    </mxGeometry>
                </mxCell>
                <mxCell id="31" value="" style="shape=partialRectangle;html=1;whiteSpace=wrap;connectable=0;top=0;left=0;bottom=0;right=0;overflow=hidden;pointerEvents=1;" parent="28" vertex="1">
                    <mxGeometry x="390" width="20" height="52" as="geometry">
                        <mxRectangle width="20" height="52" as="alternateBounds"/>
                    </mxGeometry>
                </mxCell>
                <mxCell id="47uoucX9Yz7AY1I-daVj-13" value="" style="shape=tableRow;horizontal=0;startSize=0;swimlaneHead=0;swimlaneBody=0;top=0;left=0;bottom=0;right=0;collapsible=0;dropTarget=0;points=[[0,0.5],[1,0.5]];portConstraint=eastwest;" parent="47uoucX9Yz7AY1I-daVj-4" vertex="1">
                    <mxGeometry y="513" width="410" height="51" as="geometry"/>
                </mxCell>
                <mxCell id="47uoucX9Yz7AY1I-daVj-14" value="Принятие заявки" style="shape=partialRectangle;html=1;whiteSpace=wrap;connectable=0;top=0;left=0;bottom=0;right=0;overflow=hidden;" parent="47uoucX9Yz7AY1I-daVj-13" vertex="1">
                    <mxGeometry width="130" height="51" as="geometry">
                        <mxRectangle width="130" height="51" as="alternateBounds"/>
                    </mxGeometry>
                </mxCell>
                <mxCell id="47uoucX9Yz7AY1I-daVj-15" value="Сотрудник службы безопасности,&lt;br&gt;Администратор" style="shape=partialRectangle;html=1;whiteSpace=wrap;connectable=0;top=0;left=0;bottom=0;right=0;overflow=hidden;" parent="47uoucX9Yz7AY1I-daVj-13" vertex="1">
                    <mxGeometry x="130" width="260" height="51" as="geometry">
                        <mxRectangle width="260" height="51" as="alternateBounds"/>
                    </mxGeometry>
                </mxCell>
                <mxCell id="47uoucX9Yz7AY1I-daVj-16" value="" style="shape=partialRectangle;html=1;whiteSpace=wrap;connectable=0;top=0;left=0;bottom=0;right=0;overflow=hidden;pointerEvents=1;" parent="47uoucX9Yz7AY1I-daVj-13" vertex="1">
                    <mxGeometry x="390" width="20" height="51" as="geometry">
                        <mxRectangle width="20" height="51" as="alternateBounds"/>
                    </mxGeometry>
                </mxCell>
                <mxCell id="47uoucX9Yz7AY1I-daVj-41" value="" style="shape=tableRow;horizontal=0;startSize=0;swimlaneHead=0;swimlaneBody=0;top=0;left=0;bottom=0;right=0;collapsible=0;dropTarget=0;points=[[0,0.5],[1,0.5]];portConstraint=eastwest;" parent="47uoucX9Yz7AY1I-daVj-4" vertex="1">
                    <mxGeometry y="564" width="410" height="51" as="geometry"/>
                </mxCell>
                <mxCell id="47uoucX9Yz7AY1I-daVj-42" value="Просмотр всех заявок" style="shape=partialRectangle;html=1;whiteSpace=wrap;connectable=0;top=0;left=0;bottom=0;right=0;overflow=hidden;" parent="47uoucX9Yz7AY1I-daVj-41" vertex="1">
                    <mxGeometry width="130" height="51" as="geometry">
                        <mxRectangle width="130" height="51" as="alternateBounds"/>
                    </mxGeometry>
                </mxCell>
                <mxCell id="47uoucX9Yz7AY1I-daVj-43" value="Сотрудник службы безопасности,&lt;br&gt;Администратор" style="shape=partialRectangle;html=1;whiteSpace=wrap;connectable=0;top=0;left=0;bottom=0;right=0;overflow=hidden;" parent="47uoucX9Yz7AY1I-daVj-41" vertex="1">
                    <mxGeometry x="130" width="260" height="51" as="geometry">
                        <mxRectangle width="260" height="51" as="alternateBounds"/>
                    </mxGeometry>
                </mxCell>
                <mxCell id="47uoucX9Yz7AY1I-daVj-44" value="" style="shape=partialRectangle;html=1;whiteSpace=wrap;connectable=0;top=0;left=0;bottom=0;right=0;overflow=hidden;pointerEvents=1;" parent="47uoucX9Yz7AY1I-daVj-41" vertex="1">
                    <mxGeometry x="390" width="20" height="51" as="geometry">
                        <mxRectangle width="20" height="51" as="alternateBounds"/>
                    </mxGeometry>
                </mxCell>
                <mxCell id="47uoucX9Yz7AY1I-daVj-45" value="" style="shape=tableRow;horizontal=0;startSize=0;swimlaneHead=0;swimlaneBody=0;top=0;left=0;bottom=0;right=0;collapsible=0;dropTarget=0;points=[[0,0.5],[1,0.5]];portConstraint=eastwest;" parent="47uoucX9Yz7AY1I-daVj-4" vertex="1">
                    <mxGeometry y="615" width="410" height="51" as="geometry"/>
                </mxCell>
                <mxCell id="47uoucX9Yz7AY1I-daVj-46" value="Просмотр пропусков и данных пользователей" style="shape=partialRectangle;html=1;whiteSpace=wrap;connectable=0;top=0;left=0;bottom=0;right=0;overflow=hidden;" parent="47uoucX9Yz7AY1I-daVj-45" vertex="1">
                    <mxGeometry width="130" height="51" as="geometry">
                        <mxRectangle width="130" height="51" as="alternateBounds"/>
                    </mxGeometry>
                </mxCell>
                <mxCell id="47uoucX9Yz7AY1I-daVj-47" value="Сотрудник службы безопасности,&lt;br&gt;Администратор" style="shape=partialRectangle;html=1;whiteSpace=wrap;connectable=0;top=0;left=0;bottom=0;right=0;overflow=hidden;" parent="47uoucX9Yz7AY1I-daVj-45" vertex="1">
                    <mxGeometry x="130" width="260" height="51" as="geometry">
                        <mxRectangle width="260" height="51" as="alternateBounds"/>
                    </mxGeometry>
                </mxCell>
                <mxCell id="47uoucX9Yz7AY1I-daVj-48" value="" style="shape=partialRectangle;html=1;whiteSpace=wrap;connectable=0;top=0;left=0;bottom=0;right=0;overflow=hidden;pointerEvents=1;" parent="47uoucX9Yz7AY1I-daVj-45" vertex="1">
                    <mxGeometry x="390" width="20" height="51" as="geometry">
                        <mxRectangle width="20" height="51" as="alternateBounds"/>
                    </mxGeometry>
                </mxCell>
                <mxCell id="47uoucX9Yz7AY1I-daVj-53" value="" style="shape=tableRow;horizontal=0;startSize=0;swimlaneHead=0;swimlaneBody=0;top=0;left=0;bottom=0;right=0;collapsible=0;dropTarget=0;points=[[0,0.5],[1,0.5]];portConstraint=eastwest;" parent="47uoucX9Yz7AY1I-daVj-4" vertex="1">
                    <mxGeometry y="666" width="410" height="52" as="geometry"/>
                </mxCell>
                <mxCell id="47uoucX9Yz7AY1I-daVj-54" value="Поиск по пропускам" style="shape=partialRectangle;html=1;whiteSpace=wrap;connectable=0;top=0;left=0;bottom=0;right=0;overflow=hidden;" parent="47uoucX9Yz7AY1I-daVj-53" vertex="1">
                    <mxGeometry width="130" height="52" as="geometry">
                        <mxRectangle width="130" height="52" as="alternateBounds"/>
                    </mxGeometry>
                </mxCell>
                <mxCell id="47uoucX9Yz7AY1I-daVj-55" value="&lt;span&gt;Сотрудник службы безопасности,&lt;br&gt;&lt;/span&gt;Администратор&lt;span&gt;&lt;br&gt;&lt;/span&gt;" style="shape=partialRectangle;html=1;whiteSpace=wrap;connectable=0;top=0;left=0;bottom=0;right=0;overflow=hidden;" parent="47uoucX9Yz7AY1I-daVj-53" vertex="1">
                    <mxGeometry x="130" width="260" height="52" as="geometry">
                        <mxRectangle width="260" height="52" as="alternateBounds"/>
                    </mxGeometry>
                </mxCell>
                <mxCell id="47uoucX9Yz7AY1I-daVj-56" value="" style="shape=partialRectangle;html=1;whiteSpace=wrap;connectable=0;top=0;left=0;bottom=0;right=0;overflow=hidden;pointerEvents=1;" parent="47uoucX9Yz7AY1I-daVj-53" vertex="1">
                    <mxGeometry x="390" width="20" height="52" as="geometry">
                        <mxRectangle width="20" height="52" as="alternateBounds"/>
                    </mxGeometry>
                </mxCell>
                <mxCell id="47uoucX9Yz7AY1I-daVj-66" value="" style="shape=tableRow;horizontal=0;startSize=0;swimlaneHead=0;swimlaneBody=0;top=0;left=0;bottom=0;right=0;collapsible=0;dropTarget=0;points=[[0,0.5],[1,0.5]];portConstraint=eastwest;" parent="47uoucX9Yz7AY1I-daVj-4" vertex="1">
                    <mxGeometry y="718" width="410" height="51" as="geometry"/>
                </mxCell>
                <mxCell id="47uoucX9Yz7AY1I-daVj-67" value="Поиск по заявкам&lt;br&gt;(по статусам)" style="shape=partialRectangle;html=1;whiteSpace=wrap;connectable=0;top=0;left=0;bottom=0;right=0;overflow=hidden;" parent="47uoucX9Yz7AY1I-daVj-66" vertex="1">
                    <mxGeometry width="130" height="51" as="geometry">
                        <mxRectangle width="130" height="51" as="alternateBounds"/>
                    </mxGeometry>
                </mxCell>
                <mxCell id="47uoucX9Yz7AY1I-daVj-68" value="&lt;span&gt;Сотрудник службы безопасности,&amp;nbsp;&lt;br&gt;&lt;/span&gt;Администратор" style="shape=partialRectangle;html=1;whiteSpace=wrap;connectable=0;top=0;left=0;bottom=0;right=0;overflow=hidden;" parent="47uoucX9Yz7AY1I-daVj-66" vertex="1">
                    <mxGeometry x="130" width="260" height="51" as="geometry">
                        <mxRectangle width="260" height="51" as="alternateBounds"/>
                    </mxGeometry>
                </mxCell>
                <mxCell id="47uoucX9Yz7AY1I-daVj-69" value="" style="shape=partialRectangle;html=1;whiteSpace=wrap;connectable=0;top=0;left=0;bottom=0;right=0;overflow=hidden;pointerEvents=1;" parent="47uoucX9Yz7AY1I-daVj-66" vertex="1">
                    <mxGeometry x="390" width="20" height="51" as="geometry">
                        <mxRectangle width="20" height="51" as="alternateBounds"/>
                    </mxGeometry>
                </mxCell>
                <mxCell id="47uoucX9Yz7AY1I-daVj-70" value="" style="shape=tableRow;horizontal=0;startSize=0;swimlaneHead=0;swimlaneBody=0;top=0;left=0;bottom=0;right=0;collapsible=0;dropTarget=0;points=[[0,0.5],[1,0.5]];portConstraint=eastwest;" parent="47uoucX9Yz7AY1I-daVj-4" vertex="1">
                    <mxGeometry y="769" width="410" height="51" as="geometry"/>
                </mxCell>
                <mxCell id="47uoucX9Yz7AY1I-daVj-71" value="Создание аккаунта с особой ролью" style="shape=partialRectangle;html=1;whiteSpace=wrap;connectable=0;top=0;left=0;bottom=0;right=0;overflow=hidden;" parent="47uoucX9Yz7AY1I-daVj-70" vertex="1">
                    <mxGeometry width="130" height="51" as="geometry">
                        <mxRectangle width="130" height="51" as="alternateBounds"/>
                    </mxGeometry>
                </mxCell>
                <mxCell id="47uoucX9Yz7AY1I-daVj-72" value="&lt;span&gt;Администратор&lt;/span&gt;" style="shape=partialRectangle;html=1;whiteSpace=wrap;connectable=0;top=0;left=0;bottom=0;right=0;overflow=hidden;" parent="47uoucX9Yz7AY1I-daVj-70" vertex="1">
                    <mxGeometry x="130" width="260" height="51" as="geometry">
                        <mxRectangle width="260" height="51" as="alternateBounds"/>
                    </mxGeometry>
                </mxCell>
                <mxCell id="47uoucX9Yz7AY1I-daVj-73" value="" style="shape=partialRectangle;html=1;whiteSpace=wrap;connectable=0;top=0;left=0;bottom=0;right=0;overflow=hidden;pointerEvents=1;" parent="47uoucX9Yz7AY1I-daVj-70" vertex="1">
                    <mxGeometry x="390" width="20" height="51" as="geometry">
                        <mxRectangle width="20" height="51" as="alternateBounds"/>
                    </mxGeometry>
                </mxCell>
                <mxCell id="25" style="edgeStyle=none;html=1;exitX=1;exitY=0.3333333333333333;exitDx=0;exitDy=0;exitPerimeter=0;entryX=0;entryY=0.5;entryDx=0;entryDy=0;strokeWidth=3;endArrow=none;endFill=0;fontColor=#000000;" parent="1" source="47uoucX9Yz7AY1I-daVj-74" target="2" edge="1">
                    <mxGeometry relative="1" as="geometry"/>
                </mxCell>
                <mxCell id="26" style="edgeStyle=none;html=1;exitX=1;exitY=0.3333333333333333;exitDx=0;exitDy=0;exitPerimeter=0;entryX=0;entryY=0.5;entryDx=0;entryDy=0;endArrow=none;endFill=0;strokeWidth=3;fontColor=#000000;" parent="1" source="47uoucX9Yz7AY1I-daVj-74" target="3" edge="1">
                    <mxGeometry relative="1" as="geometry"/>
                </mxCell>
                <mxCell id="27" style="edgeStyle=none;html=1;exitX=0;exitY=0.3333333333333333;exitDx=0;exitDy=0;exitPerimeter=0;entryX=1;entryY=0.5;entryDx=0;entryDy=0;endArrow=none;endFill=0;strokeWidth=3;fontColor=#000000;" parent="1" source="47uoucX9Yz7AY1I-daVj-74" target="4" edge="1">
                    <mxGeometry relative="1" as="geometry"/>
                </mxCell>
                <mxCell id="46" style="edgeStyle=none;html=1;exitX=0;exitY=0.3333333333333333;exitDx=0;exitDy=0;exitPerimeter=0;entryX=1;entryY=0.5;entryDx=0;entryDy=0;endArrow=none;endFill=0;strokeWidth=3;fontColor=#000000;" parent="1" source="47uoucX9Yz7AY1I-daVj-74" target="45" edge="1">
                    <mxGeometry relative="1" as="geometry"/>
                </mxCell>
                <mxCell id="47uoucX9Yz7AY1I-daVj-74" value="&lt;font style=&quot;font-size: 16px&quot;&gt;Базовый пользователь&lt;/font&gt;" style="shape=umlActor;verticalLabelPosition=bottom;verticalAlign=top;html=1;outlineConnect=0;strokeWidth=3;" parent="1" vertex="1">
                    <mxGeometry x="400" y="130" width="30" height="60" as="geometry"/>
                </mxCell>
                <mxCell id="33" style="edgeStyle=none;html=1;exitX=0;exitY=0.3333333333333333;exitDx=0;exitDy=0;exitPerimeter=0;entryX=1;entryY=0.5;entryDx=0;entryDy=0;endArrow=none;endFill=0;strokeWidth=3;fontColor=#000000;" parent="1" source="47uoucX9Yz7AY1I-daVj-76" target="6" edge="1">
                    <mxGeometry relative="1" as="geometry"/>
                </mxCell>
                <mxCell id="34" style="edgeStyle=none;html=1;exitX=0;exitY=0.3333333333333333;exitDx=0;exitDy=0;exitPerimeter=0;entryX=1;entryY=0.5;entryDx=0;entryDy=0;endArrow=none;endFill=0;strokeWidth=3;fontColor=#000000;" parent="1" source="47uoucX9Yz7AY1I-daVj-76" target="8" edge="1">
                    <mxGeometry relative="1" as="geometry"/>
                </mxCell>
                <mxCell id="35" style="edgeStyle=none;html=1;exitX=1;exitY=0.3333333333333333;exitDx=0;exitDy=0;exitPerimeter=0;entryX=0;entryY=0.5;entryDx=0;entryDy=0;endArrow=none;endFill=0;strokeWidth=3;fontColor=#000000;" parent="1" source="47uoucX9Yz7AY1I-daVj-76" target="5" edge="1">
                    <mxGeometry relative="1" as="geometry"/>
                </mxCell>
                <mxCell id="36" style="edgeStyle=none;html=1;exitX=1;exitY=0.3333333333333333;exitDx=0;exitDy=0;exitPerimeter=0;entryX=0;entryY=0.5;entryDx=0;entryDy=0;endArrow=none;endFill=0;strokeWidth=3;fontColor=#000000;" parent="1" source="47uoucX9Yz7AY1I-daVj-76" target="7" edge="1">
                    <mxGeometry relative="1" as="geometry"/>
                </mxCell>
                <mxCell id="47uoucX9Yz7AY1I-daVj-76" value="&lt;font style=&quot;font-size: 16px&quot;&gt;Уполномоченное лицо&lt;/font&gt;" style="shape=umlActor;verticalLabelPosition=bottom;verticalAlign=top;html=1;outlineConnect=0;strokeWidth=3;" parent="1" vertex="1">
                    <mxGeometry x="400" y="294" width="30" height="60" as="geometry"/>
                </mxCell>
                <mxCell id="2" value="Создание запроса на временный пропуск" style="ellipse;whiteSpace=wrap;html=1;" parent="1" vertex="1">
                    <mxGeometry x="550" y="10" width="160" height="60" as="geometry"/>
                </mxCell>
                <mxCell id="3" value="Просмотр статуса запроса на пропуск" style="ellipse;whiteSpace=wrap;html=1;" parent="1" vertex="1">
                    <mxGeometry x="550" y="90" width="160" height="60" as="geometry"/>
                </mxCell>
                <mxCell id="4" value="&lt;span&gt;Просмотр и использование полученных пропусков&lt;/span&gt;" style="ellipse;whiteSpace=wrap;html=1;" parent="1" vertex="1">
                    <mxGeometry x="120" y="10" width="160" height="60" as="geometry"/>
                </mxCell>
                <mxCell id="5" value="Просмотр запросов на получение пропуска" style="ellipse;whiteSpace=wrap;html=1;" parent="1" vertex="1">
                    <mxGeometry x="550" y="234" width="160" height="60" as="geometry"/>
                </mxCell>
                <mxCell id="6" value="Создание заявки на пропуска" style="ellipse;whiteSpace=wrap;html=1;" parent="1" vertex="1">
                    <mxGeometry x="120" y="220" width="160" height="60" as="geometry"/>
                </mxCell>
                <mxCell id="7" value="Просмотр статуса своей заявки" style="ellipse;whiteSpace=wrap;html=1;" parent="1" vertex="1">
                    <mxGeometry x="550" y="310" width="160" height="60" as="geometry"/>
                </mxCell>
                <mxCell id="8" value="Редактирование своих заявок" style="ellipse;whiteSpace=wrap;html=1;" parent="1" vertex="1">
                    <mxGeometry x="120" y="294" width="160" height="60" as="geometry"/>
                </mxCell>
                <mxCell id="13" value="Отклонение заявки" style="ellipse;whiteSpace=wrap;html=1;" parent="1" vertex="1">
                    <mxGeometry x="120" y="375" width="160" height="60" as="geometry"/>
                </mxCell>
                <mxCell id="14" value="Принятие заявки" style="ellipse;whiteSpace=wrap;html=1;" parent="1" vertex="1">
                    <mxGeometry x="550" y="400" width="160" height="60" as="geometry"/>
                </mxCell>
                <mxCell id="15" value="Просмотр всех заявок" style="ellipse;whiteSpace=wrap;html=1;" parent="1" vertex="1">
                    <mxGeometry x="550" y="470" width="160" height="60" as="geometry"/>
                </mxCell>
                <mxCell id="16" value="Просмотр пропусков и данных пользователей" style="ellipse;whiteSpace=wrap;html=1;" parent="1" vertex="1">
                    <mxGeometry x="550" y="540" width="160" height="60" as="geometry"/>
                </mxCell>
                <mxCell id="17" value="Поиск по пропускам" style="ellipse;whiteSpace=wrap;html=1;" parent="1" vertex="1">
                    <mxGeometry x="120" y="590" width="160" height="60" as="geometry"/>
                </mxCell>
                <mxCell id="18" value="Поиск по заявкам&lt;br&gt;(по статусам)" style="ellipse;whiteSpace=wrap;html=1;" parent="1" vertex="1">
                    <mxGeometry x="120" y="520" width="160" height="60" as="geometry"/>
                </mxCell>
                <mxCell id="19" value="Создание аккаунта с особой ролью" style="ellipse;whiteSpace=wrap;html=1;" parent="1" vertex="1">
                    <mxGeometry x="120" y="720" width="160" height="60" as="geometry"/>
                </mxCell>
                <mxCell id="23" value="" style="edgeStyle=none;html=1;strokeWidth=4;exitX=0.5;exitY=0;exitDx=0;exitDy=0;exitPerimeter=0;fontColor=#000000;" parent="1" source="47uoucX9Yz7AY1I-daVj-1" edge="1">
                    <mxGeometry relative="1" as="geometry">
                        <mxPoint x="414.5" y="480" as="sourcePoint"/>
                        <mxPoint x="415" y="470" as="targetPoint"/>
                    </mxGeometry>
                </mxCell>
                <mxCell id="24" value="" style="edgeStyle=none;html=1;strokeWidth=4;fontColor=#000000;" parent="1" edge="1">
                    <mxGeometry relative="1" as="geometry">
                        <mxPoint x="415.5" y="295" as="sourcePoint"/>
                        <mxPoint x="415.5" y="245" as="targetPoint"/>
                    </mxGeometry>
                </mxCell>
                <mxCell id="32" value="&lt;span style=&quot;&quot;&gt;Частичное принятие заявки&lt;/span&gt;" style="ellipse;whiteSpace=wrap;html=1;" parent="1" vertex="1">
                    <mxGeometry x="120" y="450" width="160" height="60" as="geometry"/>
                </mxCell>
                <mxCell id="45" value="Заявка на продление временного пропуска" style="ellipse;whiteSpace=wrap;html=1;" parent="1" vertex="1">
                    <mxGeometry x="120" y="110" width="160" height="60" as="geometry"/>
                </mxCell>
            </root>
        </mxGraphModel>
    </diagram>
</mxfile>